<?xml version="1.0" standalone="no"?>
<!DOCTYPE svg PUBLIC "-//W3C//DTD SVG 20010904//EN"
 "http://www.w3.org/TR/2001/REC-SVG-20010904/DTD/svg10.dtd">
<svg version="1.0" xmlns="http://www.w3.org/2000/svg"
 width="1184.000000pt" height="1280.000000pt" viewBox="0 0 1184.000000 1280.000000"
 preserveAspectRatio="xMidYMid meet">
<metadata>
Created by potrace 1.15, written by Peter Selinger 2001-2017
</metadata>
<g transform="translate(0.000000,1280.000000) scale(0.100000,-0.100000)"
fill="#000000" stroke="none">
<path d="M4745 12386 c-17 -7 -36 -20 -44 -30 -16 -19 -34 -98 -32 -140 1 -15
-4 -35 -10 -42 -9 -11 -9 -17 0 -28 13 -16 10 -78 -6 -98 -13 -17 -22 -66 -13
-70 4 -2 10 -20 14 -40 5 -28 3 -38 -6 -38 -7 0 -14 -11 -14 -25 -1 -14 2 -25
7 -25 4 0 6 -7 3 -15 -4 -8 -1 -15 6 -15 9 0 9 -4 3 -12 -6 -7 -9 -35 -7 -63
2 -27 3 -60 4 -73 0 -13 5 -32 10 -42 12 -22 3 -50 -15 -50 -12 0 -25 -29 -25
-57 0 -6 10 -15 21 -18 21 -7 21 -10 14 -149 -4 -85 -11 -145 -18 -152 -23
-22 -149 -66 -173 -60 -16 4 -30 -1 -46 -17 -28 -29 -119 -64 -190 -73 -36 -5
-87 -26 -159 -64 -58 -32 -117 -61 -130 -65 -53 -15 -235 -89 -250 -102 -8 -7
-21 -13 -27 -13 -6 0 -33 -19 -60 -43 -26 -24 -64 -49 -83 -56 -72 -27 -96
-40 -173 -95 -54 -39 -84 -55 -97 -51 -14 5 -22 0 -29 -20 -8 -22 -13 -24 -30
-15 -13 7 -20 7 -20 0 0 -5 -11 -10 -24 -10 -17 0 -27 -9 -37 -32 -15 -38 -36
-57 -62 -58 -10 0 -20 -6 -23 -14 -3 -8 -40 -38 -82 -67 -42 -28 -81 -57 -87
-63 -5 -7 -32 -32 -58 -56 -37 -33 -50 -41 -57 -30 -11 18 -40 5 -40 -18 0
-29 -267 -291 -340 -334 -40 -23 -79 -66 -80 -88 0 -8 -34 -58 -76 -110 -41
-52 -85 -112 -96 -133 -14 -23 -36 -44 -59 -54 -43 -18 -65 -58 -55 -98 7 -26
-2 -30 -48 -25 -37 4 -62 -35 -64 -102 -2 -48 -8 -69 -27 -94 -14 -18 -25 -40
-25 -48 0 -9 -15 -39 -34 -68 -18 -29 -37 -64 -41 -78 -11 -37 -25 -50 -51
-50 -30 0 -36 -11 -23 -47 8 -25 6 -36 -11 -66 -12 -20 -19 -41 -15 -47 3 -5
0 -10 -8 -10 -13 0 -55 -81 -72 -140 -4 -14 -18 -43 -31 -65 -12 -22 -31 -71
-41 -110 -10 -38 -31 -97 -48 -130 l-30 -60 -78 -3 c-65 -2 -85 1 -114 18 -35
21 -35 21 -77 1 -35 -17 -62 -20 -196 -20 -254 0 -280 -5 -280 -61 0 -18 -12
-39 -35 -61 -22 -21 -33 -40 -29 -51 2 -9 0 -19 -6 -23 -18 -11 -12 -37 9 -30
27 8 46 -18 30 -43 -10 -16 -10 -24 3 -44 24 -36 25 -348 2 -384 -15 -22 -15
-26 -2 -42 13 -14 15 -46 12 -192 -3 -96 -5 -188 -5 -205 0 -16 -5 -54 -11
-84 -8 -42 -7 -55 3 -62 10 -6 10 -13 2 -31 -6 -14 -7 -31 -2 -39 10 -18 6
-249 -4 -266 -4 -7 -2 -21 5 -32 10 -16 10 -23 0 -33 -14 -14 -16 -60 -2 -74
6 -6 6 -22 0 -45 -7 -24 -7 -97 -1 -211 6 -99 6 -216 2 -269 -14 -158 0 -328
30 -371 11 -14 19 -31 19 -38 0 -6 7 -18 15 -26 9 -10 15 -34 15 -65 0 -41 3
-49 19 -49 15 0 21 -12 30 -60 7 -33 21 -79 31 -103 l20 -44 80 -7 c45 -4 84
-4 89 -2 4 3 102 6 217 7 l209 1 9 -28 c17 -53 146 -353 205 -478 94 -198 226
-428 340 -591 159 -229 317 -434 425 -553 67 -73 137 -152 156 -174 63 -74
564 -481 750 -609 239 -166 436 -271 690 -369 208 -80 256 -105 264 -133 3
-14 2 -112 -3 -219 -6 -106 -8 -303 -7 -438 3 -224 5 -250 26 -303 16 -43 20
-70 16 -100 -4 -31 0 -59 18 -107 l24 -65 83 -10 84 -10 -1 -285 c-1 -157 -5
-381 -8 -498 l-7 -212 1412 0 1412 0 -7 202 c-3 112 -9 344 -12 516 l-7 312
92 0 c85 0 94 2 115 25 26 28 36 71 36 155 0 30 5 71 12 90 8 24 13 186 17
499 l6 464 110 44 c61 24 145 57 188 73 135 50 473 235 661 362 184 124 491
374 660 538 372 358 731 833 928 1225 77 153 205 466 262 641 l17 51 80 8 c45
3 178 6 297 5 120 -1 223 -1 230 -1 22 2 122 247 122 300 0 18 8 46 17 64 9
18 18 55 19 83 1 29 7 67 12 85 6 19 12 77 13 129 2 126 -7 994 -15 1390 -7
372 -7 330 -5 460 2 200 -9 447 -22 468 -25 40 -64 53 -148 51 -43 -1 -83 1
-89 5 -6 3 -13 2 -17 -4 -8 -13 -112 -13 -120 1 -4 6 -14 7 -24 4 -28 -11
-202 -16 -214 -6 -13 10 -62 8 -90 -4 -25 -11 -53 17 -42 42 13 31 4 66 -24
92 -18 17 -32 45 -41 81 -7 30 -21 67 -31 82 -11 14 -19 32 -19 38 0 7 -18 34
-41 61 -31 38 -41 58 -42 87 0 20 -8 48 -17 62 -9 14 -20 38 -24 54 -10 39
-46 86 -68 86 -10 0 -18 5 -18 10 0 6 -10 24 -21 39 -12 16 -18 34 -15 39 4 6
0 14 -7 19 -7 4 -32 39 -56 77 -31 50 -41 74 -37 92 5 18 2 26 -11 31 -21 8
-52 43 -53 59 0 7 -14 26 -30 44 -21 22 -29 39 -25 51 4 13 0 21 -12 26 -22 7
-63 43 -63 55 0 12 -30 48 -78 94 -29 28 -41 46 -36 57 7 18 -15 46 -32 40
-15 -5 -26 24 -14 32 16 10 11 41 -8 58 -10 10 -33 17 -50 17 -18 0 -32 4 -32
9 0 5 -20 31 -45 57 -25 27 -48 59 -51 72 -4 15 -14 22 -29 22 -16 0 -50 26
-102 75 -43 41 -82 75 -86 75 -4 0 -7 6 -6 13 3 29 -14 57 -36 57 -15 0 -26 8
-30 21 -4 11 -17 24 -30 29 -13 5 -30 22 -37 37 -8 16 -21 27 -30 25 -21 -3
-78 51 -78 75 0 11 -6 28 -14 38 -12 16 -16 17 -30 6 -13 -11 -17 -10 -26 13
-5 15 -18 29 -27 32 -57 20 -107 50 -129 80 -15 19 -32 34 -39 34 -7 0 -18 7
-25 15 -7 8 -23 15 -35 15 -12 0 -28 7 -35 15 -7 8 -18 15 -25 15 -7 0 -19 7
-26 16 -7 9 -24 20 -36 25 -13 5 -28 20 -33 34 -7 19 -17 25 -41 25 -17 0 -43
6 -57 14 -59 30 -80 38 -99 34 -27 -4 -137 95 -138 124 0 25 -41 40 -87 31
-21 -4 -35 0 -51 14 -45 40 -93 60 -148 61 -42 1 -57 6 -68 22 -7 11 -22 20
-33 20 -11 0 -33 9 -48 20 -16 11 -42 23 -59 26 -17 4 -36 13 -42 20 -6 8 -21
14 -33 14 -31 0 -92 23 -114 43 -10 9 -25 17 -33 17 -8 0 -25 7 -37 16 -12 8
-61 26 -108 39 -47 13 -89 26 -92 30 -3 3 -1 20 6 38 8 24 9 43 2 67 -6 19 -8
67 -5 105 10 112 10 239 0 255 -5 8 -9 73 -10 145 -1 108 2 136 17 163 23 42
23 56 -4 92 -20 28 -20 31 -5 48 21 23 22 65 2 82 -11 9 -14 22 -10 41 9 40
-20 84 -69 106 -46 21 -95 21 -701 10 -630 -11 -876 -12 -975 -3 -52 5 -106 9
-120 9 -14 0 -88 -1 -165 -2 -77 -1 -187 0 -245 3 -73 3 -114 1 -135 -8z
m2570 -2638 c135 -52 424 -203 547 -285 147 -98 393 -298 519 -423 147 -145
300 -330 403 -485 98 -148 196 -308 196 -320 0 -4 -84 -4 -186 -1 -192 6 -242
1 -319 -34 -47 -21 -116 -99 -135 -152 -8 -21 -21 -40 -30 -43 -8 -3 -24 -21
-35 -41 -25 -47 -50 -74 -108 -117 -58 -44 -130 -77 -166 -77 -15 0 -32 -5
-38 -11 -32 -32 -242 -46 -291 -20 -11 6 -39 11 -61 11 -27 0 -48 7 -68 24
-20 17 -36 23 -55 19 -61 -12 -161 27 -244 93 -23 18 -53 39 -68 45 -14 7 -28
21 -32 31 -3 11 -15 23 -27 29 -39 17 -74 43 -106 79 -81 92 -130 163 -145
208 -9 27 -26 58 -37 68 -29 26 -55 79 -75 156 -20 75 -14 100 40 167 35 44
124 117 174 142 70 36 122 84 149 137 34 69 39 135 59 737 2 55 3 101 4 103 1
6 61 -12 135 -40z m-2661 -44 c-4 -28 -1 -51 7 -60 8 -9 9 -18 3 -24 -22 -22
40 -507 78 -608 21 -56 72 -142 86 -142 4 0 35 -27 70 -60 34 -32 62 -56 62
-52 0 9 79 -69 103 -102 28 -39 40 -116 21 -137 -7 -8 -15 -26 -16 -40 -2 -13
-8 -28 -15 -34 -7 -5 -26 -36 -42 -68 -16 -31 -46 -81 -65 -111 -20 -29 -36
-59 -36 -65 0 -7 -7 -10 -17 -7 -13 4 -25 -5 -41 -29 -21 -33 -25 -35 -65 -30
-62 7 -82 -12 -80 -77 1 -41 -2 -51 -17 -55 -10 -3 -23 -16 -29 -30 -7 -14
-14 -23 -17 -20 -3 3 -22 -6 -41 -19 -20 -13 -41 -24 -48 -24 -6 0 -24 -13
-39 -29 -16 -16 -34 -27 -42 -24 -8 3 -16 -2 -20 -10 -3 -8 -16 -18 -30 -21
-15 -4 -24 -14 -24 -26 0 -11 -4 -20 -10 -20 -5 0 -10 5 -10 10 0 6 -9 10 -20
10 -11 0 -20 5 -20 10 0 20 -21 9 -37 -19 -19 -31 -81 -53 -164 -56 -25 -1
-51 -5 -58 -9 -7 -4 -23 -5 -36 -2 -18 5 -23 11 -18 23 6 15 5 15 -17 0 -42
-29 -129 -17 -259 34 -76 30 -181 100 -181 120 0 21 -29 79 -40 79 -4 0 -17
17 -28 38 -11 21 -47 65 -81 97 -34 32 -61 64 -61 70 0 15 -27 28 -40 20 -5
-3 -26 1 -46 10 -28 11 -77 15 -213 15 -97 0 -181 4 -187 8 -8 5 -1 26 25 69
20 35 58 101 85 147 73 128 230 323 394 490 303 311 623 538 992 704 101 46
273 110 282 105 4 -2 4 -24 2 -49z m-488 -3979 c117 -25 300 -92 403 -148 192
-106 352 -279 464 -503 45 -89 64 -151 58 -188 -4 -30 -49 -126 -84 -181 -70
-110 -176 -188 -296 -217 -25 -6 -59 -19 -76 -28 -16 -10 -66 -29 -111 -44
-134 -44 -207 -102 -232 -186 -6 -19 -14 -133 -18 -253 -5 -152 -10 -220 -19
-223 -16 -6 -143 49 -245 107 -94 52 -232 148 -338 233 -182 145 -470 452
-639 680 -77 104 -107 150 -204 316 -63 108 -68 100 62 101 399 4 449 7 495
29 55 27 91 70 143 173 46 93 168 226 243 264 72 38 212 76 301 82 10 0 51 -6
93 -14z m3726 -4 c83 -14 212 -73 274 -126 29 -25 70 -74 90 -108 92 -152 134
-206 193 -246 73 -50 123 -62 204 -50 73 10 387 12 387 2 0 -14 -104 -190
-178 -303 -176 -266 -439 -550 -752 -811 -115 -96 -455 -311 -526 -333 -21 -6
-21 -4 -27 224 -6 219 -7 232 -32 284 -48 101 -129 151 -290 177 -119 19 -209
68 -321 176 -94 91 -147 174 -174 271 -11 42 -10 46 45 150 86 162 189 305
291 405 137 132 216 180 400 241 163 54 288 68 416 47z"/>
</g>
</svg>
